<?xml version="1.0" encoding="UTF-8"?>
<svg id="Capa_1" data-name="Capa 1" xmlns="http://www.w3.org/2000/svg" viewBox="0 0 236.6 87.73">
  <rect x="20.25" y="7.2" width="216.35" height="59.07" style="fill: #ffef35; stroke-width: 0px;"/>
  <g>
    <path d="m30.77,27.89c.75-.17,1.72.18,2.7.27.45.04.68-.05.92-.37,1.25-1.67,2.46-3.38,3.86-4.95.94-1.06,1.9-2.09,2.87-3.11.7-.74,1.48-1.4,2.22-2.1.44-.41,1.39-.49,1.81-.08.45.44.38.96.11,1.49-.37.74-1.11,1.13-1.67,1.67-1.52,1.45-2.95,2.98-4.3,4.59-1.62,1.93-3.04,4.01-4.43,6.11-1.4,2.12-2.47,4.42-3.59,6.7-.98,1.98-1.62,4.08-2.43,6.11-.48,1.2-.73,2.49-1.1,3.73-.14.49-.03.88.36,1.22,2.39,2.04,4.78,4.08,7.15,6.14,1.97,1.71,3.92,3.43,5.86,5.18.36.32.63.41,1.12.24,2.28-.75,4.41-1.85,6.48-3.01,2.88-1.62,5.67-3.42,8.22-5.58,1.58-1.34,3.18-2.64,4.65-4.1,1.88-1.88,3.63-3.88,5.2-6.03,1.14-1.55,2.21-3.14,3.19-4.8,1.47-2.48,2.81-5.01,3.89-7.69.6-1.49,1.1-3.01,1.69-4.49.16-.41.19-.68-.36-.78-2.33-.42-4.5-1.31-6.55-2.46-1.13-.63-2.19-1.41-3.17-2.26-2.12-1.83-3.78-4.06-5.07-6.55-.38-.73-.6-1.53-.91-2.3-.19-.47-.46-.73-1.01-.4-2.01,1.21-4.23,2.06-6.12,3.5-.65.5-1.36.92-2.06,1.35-.67.41-1.52.33-1.88-.13-.4-.51-.24-1.35.47-1.85,1.09-.76,2.26-1.41,3.37-2.15,2.03-1.36,4.24-2.42,6.45-3.42,1.67-.75,3.38-1.43,5.12-2.05,2.35-.83,4.77-1.4,7.16-2.05,1.44-.39,2.97-.42,4.44-.72,1.17-.24,2.37-.12,3.54-.38.82-.18,1.56.49,1.58,1.34.04,2.23.14,4.47.08,6.7-.04,1.63-.28,3.25-.47,4.88-.29,2.53-.78,5.03-1.43,7.48-.54,2.01-1.19,3.99-1.94,5.94-1.01,2.65-2.23,5.19-3.55,7.68-.91,1.72-1.91,3.4-3.09,4.97-1.27,1.69-2.5,3.42-3.88,5.02-.92,1.07-1.91,2.08-2.9,3.1-.55.57-1.16,1.08-1.74,1.62-.37.33-.5.68-.34,1.2.46,1.52.87,3.05.94,4.65.04.95-.14,1.87-.32,2.78-.4,2.01-1.53,3.6-2.88,5.1-2.16,2.4-4.22,4.88-6.34,7.32-1.73,1.99-3.48,3.95-5.22,5.93-1.27,1.45-2.54,2.9-3.81,4.35-.77.88-1.64.76-2.08-.33-.37-.91-.65-1.87-.9-2.82-.62-2.39-.96-4.83-1.11-7.29-.07-1.12.06-2.25.16-3.38.14-1.51.34-3,.91-4.43.16-.39.19-.86-.27-1.22-.82-.65-1.61-1.34-2.39-2.04-.27-.25-.45-.19-.6.08-.93,1.68-1.83,3.37-2.72,5.07-.6,1.14-1.17,2.31-1.81,3.43-.77,1.35-1.53,2.69-2.56,3.88-1.35,1.54-3.37,2.62-5.63,1.28-.85-.51-1.11-1.46-.48-2.24.83-1.01,1.14-2.18.66-3.33-.62-1.48-1.81-2.47-3.49-2.62-1.08-.1-1.87.57-2.63,1.21-.86.72-1.61.65-2.3-.25-1.29-1.68-1.27-3.06-.06-4.9.92-1.4,2.27-2.35,3.52-3.41,1.97-1.69,4.22-2.97,6.3-4.5.7-.52,1.31-1.17,1.96-1.76.13-.12.33-.2.05-.44-.84-.72-1.65-1.48-2.46-2.22-.28-.26-.56-.17-.87-.04-3.24,1.46-6.62,2.21-10.19,2.29-2.44.06-4.84-.17-7.24-.51-.44-.06-.89-.19-1.27-.47-.51-.37-.66-1.17-.25-1.64,1.22-1.41,2.46-2.81,3.68-4.22,1.76-2.03,3.5-4.07,5.26-6.09,1.26-1.45,2.54-2.89,3.8-4.34,1.08-1.23,2.13-2.49,3.22-3.71.8-.89,1.76-1.61,2.79-2.21,1.82-1.05,3.79-1.44,6.12-1.4Zm12.47,51.46c.83-.96,1.55-1.82,2.29-2.66,1.76-2,3.54-3.98,5.28-5.99,2.1-2.41,4.11-4.91,6.28-7.25,1.47-1.59,2.43-3.37,2.6-5.48.11-1.3.11-2.66-.49-3.91-.14-.29-.23-.41-.55-.16-.95.72-1.94,1.39-2.89,2.11-2.32,1.79-4.86,3.24-7.43,4.63-1.32.71-2.71,1.31-4.08,1.92-.45.2-.74.5-.91.95-.71,1.88-1.19,3.84-1.3,5.84-.18,3.33.15,6.62,1.18,10.02ZM9.37,49.9c.98-.19,1.87.12,2.79.15,2.57.1,5.08-.11,7.59-.65,1.94-.42,3.71-1.23,5.47-2.09.24-.12.41-.25.48-.55.51-2.35,1.32-4.61,2.19-6.84.29-.74.57-1.48.9-2.2.63-1.36,1.27-2.71,1.96-4.04.42-.83.97-1.59,1.4-2.41.37-.71.19-.98-.6-.97-1.15.01-2.29.03-3.45.23-1.84.32-3.21,1.35-4.38,2.62-2.16,2.36-4.19,4.84-6.29,7.25-2.1,2.42-4.26,4.78-6.32,7.23-.58.7-1.39,1.25-1.73,2.25ZM78.21,7.1c.11-1.99-.23-2.36-1.55-2.08-2.1.44-4.23.72-6.33,1.2-2.83.65-5.54,1.63-8.28,2.56-.51.17-.6.46-.41.9.32.76.62,1.52.98,2.26.41.84.78,1.71,1.39,2.44,1.63,1.93,3.35,3.73,5.51,5.11,1.83,1.17,3.83,1.8,5.87,2.37.63.18,1.08,0,1.21-.76.22-1.25.55-2.49.76-3.75.26-1.54.53-3.08.63-4.63.13-2.03.3-4.06.22-5.62ZM26.76,72.85c1.29-.18,1.88-1.2,2.45-2.09,1.12-1.73,2.13-3.53,3.06-5.37.96-1.92,1.86-3.88,3.18-5.6.29-.37.33-.76-.12-1.1-.45-.35-.86-.74-1.28-1.1-1.14-.97-2.28-1.94-3.41-2.93-.28-.24-.46-.29-.79-.02-2.16,1.79-4.4,3.46-6.72,5.03-1.55,1.05-3.09,2.12-4.34,3.53-.46.52-.97,1.07-1.01,1.92,3.6-1.89,6.21-.85,7.99,1.08,1.5,1.64,2.28,3.81,1,6.64Z" style="stroke-width: 0px;"/>
    <path d="m52.71,23.43c3.87.2,6.85,1.91,9.01,5.17,1.16,1.74,1.64,3.62,1.68,5.67.08,4.33-1.89,7.57-5.49,9.76-2.05,1.25-4.37,1.67-6.85,1.37-3.43-.41-5.85-2.29-7.93-4.84-.42-.52-.63-1.14-.88-1.74-1.04-2.55-1.21-5.12-.32-7.77,1.02-3.04,2.91-5.23,5.84-6.56,1.54-.69,3.33-1.13,4.92-1.06Zm8.37,10.94c.08-1.71-.5-3.26-1.35-4.61-2.49-3.93-8.07-5.26-12.12-2.46-3.1,2.14-4.78,6.3-3.34,10.04.93,2.41,2.43,4.17,4.86,5.11,2.26.88,4.48.94,6.73-.08,3.47-1.57,5.05-4.33,5.23-8.01Z" style="stroke-width: 0px;"/>
    <path d="m47.94,16.17c.03.6-.65,1.38-1.2,1.33-.64-.06-1.05-.43-1.1-1.1-.05-.67.55-1.29,1.29-1.28.64.01.91.49,1.01,1.05Z" style="stroke-width: 0px;"/>
  </g>
  <g>
    <path d="m64.3,40.39c0-.2.16-.42.49-.64,1.62-1.17,2.73-2.38,3.33-3.63s.9-2.91.9-5.01c0-3.14-1.17-5.54-3.5-7.2-2.06-1.48-4.73-2.21-7.99-2.21-1.58,0-3.69.03-6.34.09-3.91.09-6.1.17-6.56.26-.47.09-.69.25-.68.49l.02.3c.27,3.39.41,8.12.41,14.18,0,1.59-.08,3.97-.23,7.15s-.23,5.56-.23,7.13c0,.36.21.58.62.67.42.09,1.65.13,3.7.13,1.79,0,3.11-.03,3.95-.09.2-.01.4-.03.6-.04.13-.04.19-.19.19-.43,0-.97-.09-2.43-.27-4.36-.18-1.93-.27-3.39-.27-4.36,0-.73.11-1.1.32-1.1,1.54,0,2.3,0,2.32-.03.87.08,1.43.37,1.68.91,1.19,2.79,2.06,4.91,2.62,6.34.42,1.1.73,1.93.95,2.49.11.24.21.39.3.43.04.03.22.06.54.11.67.09,1.95.13,3.82.13,2.19,0,3.56-.04,4.1-.13.29-.04.43-.11.43-.21,0-.37-.87-2.36-2.62-5.97-1.75-3.61-2.62-5.41-2.62-5.39Zm-8.49-4.17c-.96,0-1.88-.06-2.75-.19-.46-.07-.69-.14-.69-.21,0-.31,0-.79-.02-1.44-.01-.64-.02-1.13-.02-1.46,0-2.32.04-3.72.13-4.21.09-.42.81-.62,2.17-.62,1.89,0,3.28.26,4.17.77,1.15.67,1.72,1.88,1.72,3.63,0,2.49-1.57,3.74-4.71,3.74Z" style="fill: #8e24aa; stroke-width: 0px;"/>
    <path d="m89.05,22.09c-.23-.47-.48-.71-.75-.71-.37,0-.93.03-1.69.08-.75.05-1.32.08-1.71.08s-1.01-.04-1.82-.11c-.81-.07-1.41-.11-1.79-.11-.23,0-.43.27-.6.82-.3.95-2.21,6.17-5.71,15.66-3.24,8.78-4.86,13.36-4.86,13.73,0,.42,1.1.62,3.29.62,2.78,0,4.41-.06,4.9-.17.39-.1.72-.74.99-1.93.3-1.3.57-2.07.82-2.3.16-.13,1.45-.19,3.89-.19,3.61,0,5.53.05,5.76.15.27.14.65,1.25,1.14,3.31.13.54.44.87.92.97.59.11,1.9.17,3.95.17,2.23,0,3.57-.06,4-.17.36-.1.54-.28.54-.54,0-.39-1.7-5.01-5.11-13.88-3.39-8.81-5.44-13.96-6.14-15.47Zm-1.61,17.94c-.1.23-.62.34-1.57.34-1.02,0-1.75-.01-2.19-.04-.86-.03-1.29-.17-1.29-.43,0-.39.39-1.7,1.16-3.93.72-2.11,1.22-3.47,1.53-4.1.3.57.77,1.89,1.42,3.95.66,2.13.99,3.44.99,3.91,0,.13-.01.23-.04.3Z" style="fill: #8e24aa; stroke-width: 0px;"/>
    <path d="m116.9,21.93c-2.06-.06-4.22-.09-6.47-.09-3.81,0-6.27.07-7.39.21-.46.06-.67.22-.64.49l.02.3c.39,4.96.58,9.68.58,14.18,0,1.59-.03,3.98-.08,7.17-.05,3.19-.08,5.58-.08,7.17,0,.42.21.62.62.62.87,0,2.18.02,3.93.08,1.75.05,3.06.08,3.93.08.3,0,.45-.16.45-.49,0-.64-.06-1.62-.19-2.92-.13-1.3-.19-2.28-.19-2.94,0-.53.31-.79.92-.79.57,0,1.44.03,2.59.1,1.15.06,2.02.1,2.59.1,3.42,0,6.11-1.14,8.06-3.42,1.82-2.15,2.73-4.96,2.73-8.42s-1.06-6.12-3.18-8.21c-2.08-2.03-4.81-3.1-8.21-3.2Zm-1.85,16.46c-2.58,0-3.87-.14-3.87-.43,0-.44-.02-1.1-.05-1.97-.04-.87-.05-1.52-.05-1.97,0-3.12.05-4.78.15-4.96.11-.26,1.32-.39,3.61-.39,3.25,0,4.88,1.67,4.88,5.01,0,3.14-1.55,4.71-4.66,4.71Z" style="fill: #8e24aa; stroke-width: 0px;"/>
    <path d="m140.4,22.05c0-.31-.21-.47-.62-.47-.44,0-1.1.02-1.97.06-.87.04-1.52.06-1.97.06s-1.11-.02-2.01-.06c-.9-.04-1.57-.06-2.01-.06-.33,0-.49.16-.49.47,0,1.53.05,3.83.15,6.9.1,3.07.15,5.36.15,6.9,0,1.82-.13,5.63-.39,11.43-.13,2.75-.19,4.01-.19,3.78,0,.36.21.58.62.67.57.11,1.9.17,4,.17,1.56,0,2.81-.06,3.74-.17.34-.04.53-.07.56-.09.13-.07.19-.25.19-.54,0-1.69-.04-4.23-.13-7.63s-.13-5.94-.13-7.63c0-1.53.08-3.83.25-6.9.16-3.06.25-5.36.25-6.9Z" style="fill: #8e24aa; stroke-width: 0px;"/>
    <path d="m166.54,24.56c-1.92-1.38-4.58-2.23-7.97-2.58-1.3-.13-4.16-.19-8.57-.19-2.32,0-3.99.06-5.01.17-.42.06-.62.24-.62.54,0,1.63.06,4.09.18,7.38.12,3.29.18,5.75.18,7.4s-.06,3.94-.18,7.1c-.12,3.16-.18,5.53-.18,7.1,0,.33.21.49.62.49.7,0,1.76.02,3.17.06,1.41.04,2.47.06,3.17.06,3.74,0,6.02-.01,6.85-.04,4.33-.14,7.68-1.6,10.08-4.36,2.71-3.09,4.06-6.75,4.06-10.96,0-2.32-.5-4.58-1.5-6.77-1.05-2.32-2.47-4.12-4.28-5.41Zm-4.45,18.35c-1.42,1.65-3.37,2.47-5.84,2.47-2.29,0-3.44-.31-3.44-.92,0-.84-.01-2.1-.04-3.77-.03-1.67-.04-2.92-.04-3.75s.01-2.12.04-3.81c.03-1.7.04-2.97.04-3.81,0-.59,1.1-.88,3.31-.88,2.41,0,4.34.79,5.8,2.38,1.45,1.53,2.17,3.51,2.17,5.93,0,2.55-.67,4.6-2,6.17Z" style="fill: #8e24aa; stroke-width: 0px;"/>
    <path d="m184.87,22.3c0-.31-.21-.47-.62-.47-.44,0-1.1.02-1.97.06-.87.04-1.52.06-1.97.06s-1.11-.02-2.01-.06c-.9-.04-1.57-.06-2.01-.06-.33,0-.49.16-.49.47,0,1.53.05,3.83.15,6.9.1,3.07.15,5.36.15,6.9,0,1.82-.13,5.63-.39,11.43-.13,2.75-.19,4.01-.19,3.78,0,.36.21.58.62.67.57.11,1.9.17,4,.17,1.56,0,2.81-.06,3.74-.17.34-.04.53-.07.56-.09.13-.07.19-.25.19-.54,0-1.69-.04-4.23-.13-7.63s-.13-5.94-.13-7.63c0-1.53.08-3.83.25-6.9.16-3.06.25-5.36.25-6.9Z" style="fill: #8e24aa; stroke-width: 0px;"/>
    <path d="m217.09,21.83c-.86,0-2.16.04-3.89.11-1.73.07-3.03.11-3.89.11-.3,0-.45.27-.45.79,0,1.52.08,3.79.25,6.81.16,3.02.25,5.29.25,6.79,0,1.12-.09,1.68-.28,1.68-.26,0-.57-.22-.92-.67-1.45-1.9-2.53-3.35-3.24-4.34l-8.01-10.98c-.36-.49-.62-.73-.79-.73-.42,0-.98.06-1.7.19-.85.16-1.41.25-1.7.28-1.22.11-2.24.17-3.07.17-.56,0-.84.16-.84.47,0,1.63.07,4.09.2,7.37.14,3.28.2,5.74.2,7.39,0,1.56-.08,3.9-.23,7.03-.15,3.12-.23,5.46-.23,7,0,.44.21.67.62.67h7.43c.39,0,.58-.25.58-.75,0-1.66-.05-4.15-.14-7.48-.09-3.32-.14-5.81-.14-7.48,0-.21.06-.37.17-.47.16.09.26.17.32.26,2.02,2.59,3.52,4.55,4.51,5.89,3.61,4.77,5.93,7.85,6.96,9.24.36.47.67.71.92.71.37,0,.93.03,1.68.09.74.06,1.3.09,1.68.09.34,0,.86-.01,1.56-.04.69-.03,1.21-.04,1.56-.04.42,0,.62-.19.62-.58v-14.16c0-1.65.07-4.11.2-7.38.14-3.27.2-5.73.2-7.36,0-.44-.14-.67-.41-.67Z" style="fill: #8e24aa; stroke-width: 0px;"/>
  </g>
</svg>